<svg xmlns="http://www.w3.org/2000/svg" xmlns:xlink="http://www.w3.org/1999/xlink" fill="none" viewBox="0 0 691 468">
  <ellipse cx="274.542" cy="63.301" fill="url(#a)" rx="378.675" ry="201.612" transform="rotate(-42.343 274.542 63.3)"/>
  <path fill="#000" d="M130.488 99.668V80.55h17.426v19.12h-4.398V83.143l1.011 1.01h-10.652l1.01-1.01v16.524zm28.857 0V96.8l-.273-.628v-5.135q0-1.365-.847-2.13-.82-.765-2.54-.765-1.175 0-2.321.383-1.12.354-1.912.983l-1.53-2.977q1.201-.847 2.895-1.311a13 13 0 0 1 3.442-.465q3.359 0 5.217 1.584t1.857 4.944v8.385zm-4.479.219q-1.721 0-2.95-.574-1.229-.6-1.885-1.611a4.1 4.1 0 0 1-.655-2.267q0-1.312.628-2.295.655-.983 2.049-1.53 1.392-.573 3.632-.573h3.906v2.486h-3.442q-1.502 0-2.075.491a1.59 1.59 0 0 0-.547 1.23q0 .82.629 1.31.655.465 1.775.465 1.065 0 1.912-.492.846-.52 1.229-1.502l.656 1.966q-.465 1.421-1.694 2.158-1.228.738-3.168.738m19.051 0q-1.857 0-3.25-.82-1.393-.819-2.185-2.485-.765-1.695-.765-4.261 0-2.595.738-4.26.737-1.667 2.13-2.486t3.332-.82q2.076 0 3.715.956a6.7 6.7 0 0 1 2.622 2.622q.983 1.694.983 3.988 0 2.322-.983 4.015a6.7 6.7 0 0 1-2.622 2.622q-1.64.93-3.715.929m-8.685 5.08V84.974h4.069v3.004l-.082 4.37.273 4.343v8.276zm7.948-8.576q1.065 0 1.884-.492a3.5 3.5 0 0 0 1.339-1.393q.519-.929.519-2.185 0-1.284-.519-2.185a3.5 3.5 0 0 0-1.339-1.393q-.819-.492-1.884-.492-1.066 0-1.912.492a3.5 3.5 0 0 0-1.339 1.393q-.49.901-.491 2.185 0 1.257.491 2.185.492.9 1.339 1.393.846.492 1.912.492m17.823 3.277V96.8l-.273-.628v-5.135q0-1.365-.847-2.13-.82-.765-2.54-.765a7.3 7.3 0 0 0-2.322.383q-1.12.354-1.912.983l-1.529-2.977q1.201-.847 2.895-1.311a13 13 0 0 1 3.442-.465q3.359 0 5.216 1.584t1.858 4.944v8.385zm-4.479.219q-1.722 0-2.95-.574-1.23-.6-1.885-1.611a4.1 4.1 0 0 1-.655-2.267q0-1.312.628-2.295.656-.983 2.048-1.53 1.393-.573 3.633-.573h3.906v2.486h-3.442q-1.502 0-2.075.491a1.58 1.58 0 0 0-.547 1.23q0 .82.628 1.31.656.465 1.776.465 1.065 0 1.912-.492.846-.52 1.229-1.502l.655 1.966q-.464 1.421-1.693 2.158-1.23.738-3.168.738m20.28.109h-1.065q-4.78-.082-7.402-2.048t-2.622-5.682q0-3.66 2.595-5.571 2.621-1.94 7.511-1.967h1.01q4.944 0 7.648 1.912 2.731 1.912 2.731 5.626 0 3.77-2.731 5.763-2.704 1.967-7.675 1.967m-.136-3.278q2.267 0 3.687-.464 1.42-.492 2.076-1.475.682-1.01.682-2.513 0-1.448-.655-2.376-.655-.955-2.103-1.42-1.42-.465-3.687-.465h-.656q-2.185 0-3.551.492-1.365.492-1.994 1.42-.627.93-.628 2.35 0 1.474.628 2.458.629.983 1.994 1.474 1.366.492 3.551.52h.656m-2.158 8.249V79.402h3.906v25.565zm13.783-5.299V84.974h4.261v14.694zm2.13-16.743q-1.174 0-1.911-.683a2.21 2.21 0 0 1-.738-1.693q0-1.01.738-1.693.736-.684 1.911-.683 1.175 0 1.912.655.738.629.738 1.64 0 1.065-.738 1.774-.71.684-1.912.683m13.703 16.743V94.78l.601.683h-4.07q-3.168 0-4.971-1.311t-1.802-3.77q0-2.621 1.884-4.014 1.913-1.393 5.135-1.393h7.02v14.694zm-10.461 0 3.906-5.599h4.343l-3.715 5.6zm10.461-6.2V87.35l.601 1.093h-3.742q-1.311 0-2.048.491-.71.492-.71 1.584 0 2.103 2.704 2.103h3.796zm-94.597 34.528q-2.212 0-4.125-.71a9.9 9.9 0 0 1-3.277-2.076 9.7 9.7 0 0 1-2.185-3.141q-.765-1.803-.765-3.96t.765-3.961a9.7 9.7 0 0 1 2.185-3.141 9.8 9.8 0 0 1 3.305-2.048q1.884-.738 4.124-.738 2.486 0 4.479.874a8.6 8.6 0 0 1 3.387 2.513l-2.84 2.622q-.984-1.12-2.185-1.666a6 6 0 0 0-2.622-.574q-1.339 0-2.459.437a5.6 5.6 0 0 0-1.939 1.257 5.9 5.9 0 0 0-1.284 1.939q-.437 1.12-.437 2.486 0 1.365.437 2.485.465 1.12 1.284 1.939a5.6 5.6 0 0 0 1.939 1.257q1.12.437 2.459.437 1.419 0 2.622-.547 1.201-.573 2.185-1.72l2.84 2.622a8.85 8.85 0 0 1-3.387 2.54q-1.994.874-4.506.874m8.674-.328v-14.694h7.511q2.759 0 4.316 1.01 1.557.984 1.557 2.786t-1.475 2.841q-1.448 1.01-3.852 1.01l.437-.983q2.677 0 3.988.983 1.339.984 1.339 2.868 0 1.94-1.475 3.059t-4.507 1.12zm3.906-2.895h3.578q1.175 0 1.748-.382.601-.41.601-1.229 0-.847-.546-1.23-.547-.41-1.721-.409h-3.66zm0-5.763h3.223q1.12 0 1.666-.41.573-.41.573-1.174 0-.792-.573-1.175-.546-.382-1.666-.382h-3.223zm12.839 8.877a2.67 2.67 0 0 1-1.885-.738q-.764-.765-.764-1.939t.764-1.885a2.68 2.68 0 0 1 1.885-.737q1.12 0 1.885.737.764.71.764 1.885 0 1.174-.764 1.939-.765.738-1.885.738m10.131-.219V108.55h15.432v3.523h-11.034v3.934h5.298q3.47 0 5.272 1.447 1.83 1.448 1.83 4.206 0 2.841-2.021 4.425t-5.709 1.584zm4.398-3.277h4.424q1.694 0 2.595-.656.901-.683.901-1.966 0-2.513-3.496-2.513h-4.424zm22.459 3.277V124.8l-.273-.628v-5.135q0-1.365-.847-2.13-.82-.765-2.54-.765-1.174 0-2.322.382-1.12.356-1.912.984l-1.529-2.977q1.201-.847 2.895-1.311a13 13 0 0 1 3.441-.465q3.36 0 5.217 1.584 1.858 1.585 1.858 4.944v8.385zm-4.48.219q-1.72 0-2.949-.574-1.23-.6-1.885-1.611a4.1 4.1 0 0 1-.655-2.267q0-1.311.628-2.295.656-.983 2.048-1.529 1.393-.574 3.633-.574h3.906v2.486h-3.442q-1.502 0-2.076.491a1.59 1.59 0 0 0-.546 1.229q0 .82.628 1.312.656.464 1.776.464 1.065 0 1.912-.492.846-.52 1.229-1.502l.655 1.967q-.464 1.42-1.693 2.157t-3.169.738m19.052 0q-1.858 0-3.25-.82-1.393-.819-2.185-2.485-.765-1.693-.765-4.261 0-2.595.737-4.261.738-1.666 2.131-2.485 1.392-.82 3.332-.82 2.076 0 3.715.956a6.73 6.73 0 0 1 2.622 2.622q.983 1.693.983 3.988 0 2.322-.983 4.015a6.73 6.73 0 0 1-2.622 2.622q-1.64.929-3.715.929m-8.686 5.08v-19.993h4.07v3.004l-.082 4.37.273 4.343v8.276zm7.948-8.576q1.066 0 1.885-.492a3.5 3.5 0 0 0 1.338-1.393q.519-.928.519-2.185 0-1.284-.519-2.185a3.5 3.5 0 0 0-1.338-1.393q-.819-.492-1.885-.492-1.065 0-1.911.492a3.5 3.5 0 0 0-1.339 1.393q-.492.901-.491 2.185 0 1.257.491 2.185a3.5 3.5 0 0 0 1.339 1.393q.846.492 1.911.492m11.876 3.277v-12.181l.956.983h-5.927v-3.496h14.176v3.496h-5.927l.956-.983v12.181zm18.496 0V124.8l-.273-.628v-5.135q0-1.365-.847-2.13-.82-.765-2.54-.765-1.174 0-2.322.382-1.12.356-1.912.984l-1.529-2.977q1.201-.847 2.895-1.311a13 13 0 0 1 3.441-.465q3.36 0 5.217 1.584 1.858 1.585 1.858 4.944v8.385zm-4.48.219q-1.72 0-2.949-.574-1.23-.6-1.885-1.611a4.1 4.1 0 0 1-.655-2.267q0-1.311.628-2.295.656-.983 2.048-1.529 1.393-.574 3.633-.574h3.906v2.486h-3.442q-1.501 0-2.076.491a1.59 1.59 0 0 0-.546 1.229q0 .82.628 1.312.656.464 1.776.464 1.065 0 1.912-.492.846-.52 1.229-1.502l.655 1.967q-.464 1.42-1.693 2.157t-3.169.738m8.536-.246.219-3.496.328.054h.3q.765 0 1.202-.437.437-.436.655-1.174a9 9 0 0 0 .301-1.721q.109-.956.164-1.994l.218-5.899h12.564v14.694h-4.261v-12.236l.956 1.038h-6.446l.902-1.093-.191 3.688a34 34 0 0 1-.328 3.605q-.219 1.638-.738 2.84-.519 1.175-1.393 1.83-.874.629-2.239.629a7 7 0 0 1-1.038-.082 12 12 0 0 1-1.175-.246m27.068.027V124.8l-.273-.628v-5.135q0-1.365-.847-2.13-.82-.765-2.54-.765-1.175 0-2.321.382-1.12.356-1.912.984l-1.53-2.977q1.202-.847 2.895-1.311a13 13 0 0 1 3.442-.465q3.358 0 5.217 1.584 1.857 1.585 1.857 4.944v8.385zm-4.479.219q-1.721 0-2.95-.574-1.229-.6-1.885-1.611a4.1 4.1 0 0 1-.655-2.267q0-1.311.628-2.295.656-.983 2.049-1.529 1.392-.574 3.632-.574h3.906v2.486h-3.441q-1.503 0-2.076.491a1.59 1.59 0 0 0-.547 1.229q0 .82.629 1.312.655.464 1.775.464 1.065 0 1.912-.492.846-.52 1.229-1.502l.656 1.967q-.465 1.42-1.694 2.157t-3.168.738m10.393-.219v-14.694h4.452l5.545 10.051h-1.776l5.927-10.051h3.988l.055 14.694h-3.852v-10.324l.656.437-5.053 8.467h-1.803l-5.08-8.768.792-.191v10.379zm27.68.219q-2.512 0-4.425-.984-1.884-.983-2.922-2.676-1.038-1.72-1.038-3.906 0-2.212 1.01-3.906a7.2 7.2 0 0 1 2.814-2.676q1.775-.984 4.015-.984 2.157 0 3.878.929a6.7 6.7 0 0 1 2.759 2.622q1.01 1.693 1.01 4.07 0 .245-.027.573-.027.3-.055.574h-11.935v-2.486h9.696l-1.639.738q0-1.148-.464-1.994a3.3 3.3 0 0 0-1.284-1.311q-.82-.492-1.912-.492t-1.939.492a3.25 3.25 0 0 0-1.284 1.338q-.464.847-.464 2.021v.656q0 1.201.519 2.13a3.7 3.7 0 0 0 1.502 1.393q.983.465 2.294.465 1.175 0 2.049-.355a5 5 0 0 0 1.639-1.066l2.267 2.458q-1.011 1.148-2.541 1.776-1.529.6-3.523.601m17.451-.219v-4.889l.601.683h-4.069q-3.17 0-4.971-1.311-1.803-1.31-1.803-3.769 0-2.623 1.884-4.015 1.913-1.393 5.135-1.393h7.02v14.694zm-10.461 0 3.906-5.599h4.343l-3.715 5.599zm10.461-6.2v-6.118l.601 1.093h-3.742q-1.311 0-2.048.491-.71.492-.71 1.584 0 2.103 2.704 2.103h3.796z"/>
  <g fill="#000" clip-path="url(#b)">
    <path d="M247.17 69.859h27.371v4.466H247.17z"/>
    <path d="M247.17 69.859h4.466v31.51h-4.466zm22.905 0h4.466v31.51h-4.466zm-20.583-18.057h22.145v3.813h-22.145z"/>
    <path d="M249.492 51.802h4.466v21.445h-4.466zm18.26 0h4.466v21.445h-4.466z"/>
    <path d="M272.237 52.191c0-2.946-1.199-5.772-3.333-7.855a11.53 11.53 0 0 0-8.048-3.254c-3.019 0-5.913 1.17-8.048 3.254a10.98 10.98 0 0 0-3.333 7.855h4.268a6.86 6.86 0 0 1 2.083-4.91 7.2 7.2 0 0 1 5.03-2.033c1.887 0 3.696.732 5.03 2.034a6.86 6.86 0 0 1 2.083 4.91z"/>
    <path d="M259.634 21.423h2.442v21.309h-2.442z"/>
    <path d="M253.669 32.475v-2.442h14.374v2.442zm5.048 27.814a2.138 2.138 0 1 1 4.277 0v4.73h-4.277zm-1.391 20.945a3.733 3.733 0 1 1 7.466 0v5.979h-7.466z"/>
  </g>
  <defs>
    <radialGradient id="a" cx="0" cy="0" r="1" gradientTransform="scale(378.675 201.612)rotate(90 .206 .52)" gradientUnits="userSpaceOnUse">
      <stop stop-color="#fff" stop-opacity=".5"/>
      <stop offset=".481" stop-color="#fff" stop-opacity=".4"/>
      <stop offset=".942" stop-color="#fff" stop-opacity="0"/>
    </radialGradient>
    <clipPath id="b">
      <path fill="#fff" d="M219.858 21.423h80.044v80.044h-80.044z"/>
    </clipPath>
  </defs>
</svg>
